<svg width="150" height="150" viewBox="0 0 150 150" fill="none" xmlns="http://www.w3.org/2000/svg">
<path d="M120.139 117.25C120.139 117.25 121.943 118.423 122.269 118.702C122.564 118.965 122.153 119.917 121.326 121.629C119.955 122.969 119.175 123.666 118.819 123.483C118.438 123.282 116.698 122.03 116.698 122.03C116.698 122.03 114.898 120.857 114.572 120.573C114.272 120.314 114.679 119.362 115.506 117.646C116.882 116.306 117.662 115.609 118.018 115.797C118.399 115.997 120.139 117.25 120.139 117.25ZM81.5058 135.089C83.4128 135.46 84.4456 135.727 84.4756 136.149C84.497 136.379 84.4756 137.063 84.437 137.694C84.3899 138.316 84.347 138.883 84.347 138.883C84.347 138.883 84.317 139.455 84.2828 140.082C84.2356 140.708 84.1756 141.388 84.1242 141.614C84.0385 142.027 82.98 142.165 81.0387 142.303C79.1702 141.76 78.1675 141.443 78.1589 141.05C78.1546 140.837 78.2146 140.207 78.266 139.627C78.3174 139.046 78.3646 138.516 78.3646 138.516C78.3646 138.516 78.386 137.986 78.4117 137.406C78.4332 136.825 78.4546 136.191 78.4846 135.978C78.5446 135.59 79.5816 135.398 81.5058 135.089ZM32.2919 117.312C34.3104 117.45 35.3946 117.479 35.6474 118.08C35.7846 118.402 36.1574 119.387 36.5817 120.255C36.9973 121.128 37.4473 121.884 37.4473 121.884C37.4473 121.884 37.9187 122.635 38.5058 123.407C39.0886 124.188 39.8043 124.973 40.0271 125.244C40.4428 125.745 39.9586 126.689 39.1186 128.484C37.3573 129.428 36.2517 129.791 35.6303 129.21C35.2917 128.897 34.3704 127.879 33.629 126.864C32.8748 125.854 32.3005 124.873 32.3005 124.873C32.3005 124.873 31.6877 123.908 31.1392 122.785C30.5735 121.671 30.0935 120.389 29.9735 119.951C29.7421 119.145 30.5992 118.368 32.2919 117.312ZM9.82344 81.7261C7.93357 81.1416 6.91363 80.7576 6.89649 80.1606C6.87507 79.5135 7.08077 76.2863 7.08077 76.2863C7.08077 76.2863 7.18362 73.055 7.26504 72.4121C7.34218 71.8193 8.39211 71.5312 10.3291 71.1221C12.2147 71.7024 13.2346 72.0865 13.2518 72.6877C13.2732 73.3306 13.0675 76.5577 13.0675 76.5577C13.0675 76.5577 12.9647 79.789 12.8832 80.4319C12.8104 81.0247 11.7605 81.317 9.82344 81.7261ZM21.4627 35.7531C20.027 34.3629 19.3285 33.4528 19.6971 32.6721C19.8985 32.2504 20.5927 31.023 21.3084 29.9501C22.0155 28.8688 22.7312 27.9378 22.7312 27.9378C22.7312 27.9378 23.4168 26.986 24.2525 25.9924C25.0796 24.9946 26.0566 23.9759 26.4038 23.6587C27.0551 23.0742 28.1565 23.4374 29.965 24.335C30.7835 26.151 31.2163 27.1488 30.7278 27.704C30.4664 28.0088 29.6264 28.8813 28.915 29.7247C28.1908 30.5638 27.5823 31.3695 27.5823 31.3695C27.5823 31.3695 26.9909 32.1794 26.3952 33.1063C25.7952 34.0289 25.1996 35.0768 24.9896 35.4191C24.5953 36.0453 23.494 35.9451 21.4627 35.7531ZM66.254 14.3446C65.6497 14.4699 65.0326 13.589 64.0127 11.9316C63.9827 10.0028 64.0384 8.93826 64.6169 8.72952C65.2426 8.50408 68.461 7.66912 68.461 7.66912C68.461 7.66912 71.6579 6.73396 72.3093 6.60454C72.9135 6.48347 73.5306 7.36018 74.5506 9.01758C74.5763 10.9505 74.5291 12.0109 73.9463 12.2197C73.3206 12.4451 70.1023 13.2842 70.1023 13.2842C70.1023 13.2842 66.9096 14.2194 66.254 14.3446ZM125.153 28.9648C125.153 28.9648 127.707 31.453 128.17 31.9916C128.603 32.4926 128.123 33.4569 127.137 35.1477C125.376 36.0537 124.369 36.4962 123.876 36.062C123.332 35.5903 120.85 33.0311 120.85 33.0311C120.85 33.0311 118.3 30.5387 117.833 30.0002C117.405 29.5034 117.885 28.5348 118.87 26.8482C120.632 25.9381 121.639 25.4997 122.132 25.9339C122.676 26.4057 125.153 28.9648 125.153 28.9648ZM138.249 62.7641C140.203 63.1774 141.266 63.4237 141.378 64.0374C141.429 64.3714 141.579 65.3692 141.712 66.2918C141.853 67.2103 142.016 68.0411 142.016 68.0411C142.016 68.0411 142.2 68.8635 142.432 69.7653C142.68 70.6629 142.942 71.6439 143.027 71.9696C143.169 72.5791 142.286 73.2053 140.653 74.3242C138.656 74.3951 137.534 74.3033 137.285 73.6437C137.148 73.2847 136.818 72.1825 136.574 71.1597C136.321 70.1368 136.145 69.1975 136.145 69.1975C136.145 69.1975 135.935 68.2623 135.759 67.227C135.575 66.1916 135.438 65.0477 135.421 64.6678C135.391 63.9623 136.385 63.4571 138.249 62.7641ZM81.2401 37.2602C80.9358 37.2143 80.5373 37.1642 80.0873 37.1141C80.5587 37.0556 81.0216 37.0055 81.4801 36.968C81.403 37.0556 81.3215 37.1558 81.2401 37.2602ZM119.338 74.846C119.192 74.7208 119.008 74.5621 118.789 74.3743C119.158 74.4369 119.535 74.4912 119.942 74.5454C119.955 74.583 119.968 74.6289 119.98 74.6623C120.182 75.2385 120.426 75.7227 120.717 76.1611C120.735 76.2488 120.752 76.3406 120.765 76.4366C120.396 75.8897 119.933 75.3679 119.338 74.846ZM43.6612 36.3209C43.914 36.4503 44.2526 36.7133 44.5568 37.0765C44.6468 37.1976 44.7368 37.327 44.8183 37.4606C44.484 37.6944 44.1883 37.9699 43.9097 38.2997C43.7298 37.4188 43.5798 36.6799 43.5069 36.3292C43.5026 36.3 43.4941 36.2708 43.4855 36.2415C43.5412 36.2624 43.5969 36.2875 43.6612 36.3209ZM119.946 53.5086C119.552 52.9199 119.209 52.4523 118.969 52.1225C118.729 51.7969 118.596 51.609 118.596 51.609C118.596 51.609 118.455 51.4295 118.211 51.108C117.966 50.7866 117.615 50.3232 117.169 49.7805C116.278 48.6908 115.022 47.2547 113.629 45.8394C110.852 42.9922 107.493 40.3036 106.348 39.4603C104.759 38.2788 103.319 37.949 101.484 37.995C100.679 37.4606 99.1832 36.563 97.7176 35.8408C95.9434 34.9557 94.2592 34.3128 94.2592 34.3128C94.2592 34.3128 93.8436 34.1416 93.1879 33.8995C92.8622 33.7742 92.4765 33.6406 92.048 33.4987C91.6151 33.3484 91.1009 33.1897 90.5738 33.0478C89.5196 32.7764 88.3496 32.5761 87.274 32.5343C86.2069 32.4759 85.2298 32.6136 84.7456 32.7263C84.7456 32.7263 84.7413 32.7305 84.7413 32.7263C84.6599 32.7013 84.5827 32.6762 84.5056 32.6512C82.6843 32.1252 80.7044 31.7995 78.5403 31.883C76.3804 31.9582 74.0277 32.3757 71.5679 33.3818C70.9465 33.6072 70.2351 34.0038 69.3695 34.438C68.9538 34.6885 68.5038 34.964 68.0196 35.2563C67.5482 35.5652 67.0768 35.9284 66.5582 36.2958C64.5612 37.8363 62.4314 40.0448 60.1258 42.629C59.1016 43.7562 57.9102 45.0838 56.6503 46.2736C55.3904 47.476 54.0534 48.5155 52.772 49.2127C52.5963 49.3254 52.4077 49.4089 52.2235 49.4924C52.1635 49.4339 52.1078 49.3838 52.0563 49.3296C51.6707 48.9413 51.5035 48.7159 51.2635 48.7075L51.2593 48.7117C51.2335 48.6115 51.2121 48.5113 51.1907 48.3986C50.9936 47.5177 50.9636 46.0774 51.1778 44.182C51.3492 42.2658 51.7092 39.7901 51.0878 37.1391C50.9336 36.492 50.7236 35.8491 50.3979 35.1644C50.085 34.509 49.6951 33.9412 49.2837 33.4277C48.448 32.4091 47.4752 31.6367 46.4767 31.1316C45.5511 30.6515 44.514 30.3509 43.4683 30.2966C42.4227 30.2256 41.3942 30.4511 40.5585 30.7809C38.8915 31.4906 38.043 32.4466 37.4173 33.1146C37.1216 33.4486 36.8859 33.7366 36.6802 33.9955C36.6159 33.8034 36.5431 33.5947 36.5002 33.3442C36.4445 32.9894 36.4617 32.526 36.7959 32.0834C36.5731 31.5908 36.0803 31.2276 35.566 31.0439C35.0432 30.8602 34.5075 30.8268 34.0447 30.8769C33.1147 30.9604 32.3477 31.4363 31.9448 31.8914C31.4306 32.4425 30.0121 34.2042 28.8636 35.9159C27.698 37.6234 26.7937 39.2599 26.7937 39.2599C26.7937 39.2599 25.8424 40.8714 24.9596 42.7334C24.0596 44.5828 23.2711 46.6827 23.0568 47.3966C22.9026 47.8976 22.9154 48.3694 23.0826 48.8411C21.8826 49.9391 21.1841 51.0705 20.987 52.7863C20.867 53.663 20.717 55.7337 20.6656 58.0967C20.6056 58.2762 20.5499 58.4641 20.4942 58.6478C20.0442 60.1131 19.7099 61.5576 19.5042 62.6305C19.3971 63.1691 19.3285 63.62 19.2814 63.9289C19.2342 64.242 19.2085 64.4173 19.2085 64.4173C19.2085 64.4173 19.1828 64.5927 19.14 64.91C19.1014 65.2231 19.0414 65.6781 18.9985 66.2334C18.9 67.3397 18.8314 68.851 18.9257 70.4374C19.0071 72.028 19.2557 73.6896 19.5899 75.0882C19.9285 76.4826 20.3356 77.6098 20.5627 78.1567C20.8284 78.7954 21.1713 79.3089 21.5955 79.718C21.6041 79.8391 21.6127 79.9602 21.6298 80.0771C21.6984 80.8745 21.7841 81.5299 21.8484 81.9891C21.9083 82.4484 21.9469 82.7072 21.9469 82.7072C21.9469 82.7072 21.9898 82.966 22.0626 83.4211C22.1398 83.8803 22.2426 84.5399 22.4183 85.3332C22.474 85.6129 22.5426 85.9176 22.6112 86.2266C22.4697 86.6148 22.4612 86.8945 22.6154 87.0782C22.6712 87.145 22.7697 87.2536 22.894 87.3788C23.1983 88.5728 23.5968 89.9046 24.0896 91.253C24.8824 93.4406 25.9324 95.6575 26.9866 97.461C27.818 98.8679 28.6279 100.02 29.2064 100.78C28.9536 101.594 28.7993 102.32 28.7822 102.997C28.7993 103.857 29.0222 104.663 29.6221 105.468C30.2607 106.341 32.3519 108.854 34.5932 110.854C35.146 111.363 35.6903 111.852 36.2217 112.269C36.7488 112.695 37.2202 113.104 37.653 113.409C38.5058 114.035 39.0544 114.44 39.0544 114.44C39.0544 114.44 39.6157 114.82 40.4943 115.413C40.9271 115.717 41.4713 116.026 42.0499 116.381C42.6241 116.744 43.2712 117.099 43.9355 117.45C46.5881 118.899 49.6908 120.051 50.745 120.368C51.7135 120.673 52.5706 120.627 53.4148 120.372C53.432 120.368 53.4534 120.356 53.4705 120.351C53.7362 120.477 54.0019 120.598 54.2676 120.723C54.7005 120.923 55.1247 121.12 55.5404 121.312C55.9604 121.5 56.3846 121.65 56.7832 121.813C57.5845 122.117 58.3131 122.431 58.9559 122.623C60.2329 123.036 61.0557 123.303 61.0557 123.303C61.0557 123.303 61.8914 123.529 63.1899 123.879C63.8327 124.071 64.6169 124.205 65.4569 124.384C65.8811 124.468 66.3225 124.572 66.7725 124.643C67.231 124.71 67.6982 124.777 68.1696 124.848C68.6409 124.91 69.1209 124.994 69.6009 125.044C70.0809 125.086 70.5608 125.123 71.0365 125.165C71.5122 125.203 71.9793 125.253 72.4336 125.269C72.8878 125.282 73.3335 125.294 73.7578 125.303C75.4548 125.378 76.8475 125.24 77.5418 125.223C77.6489 125.211 77.7518 125.198 77.8589 125.186C78.2746 126.463 78.7546 127.161 79.5217 127.219C80.0402 127.261 81.5958 127.265 83.0143 127.119C84.4285 126.981 85.697 126.726 85.697 126.726C85.697 126.726 86.9012 126.518 88.2211 126.142C88.701 126.142 89.3181 126.125 89.9652 126.067C91.3366 125.962 92.8151 125.641 93.2907 125.495C94.1735 125.223 94.4092 124.08 94.3707 122.113C94.2807 122.001 94.1907 121.896 94.1007 121.792C94.285 121.754 94.4735 121.712 94.6706 121.667C94.8892 120.535 95.0178 119.642 94.9535 118.894C95.4506 117.943 95.562 117.233 95.142 116.678C94.8206 116.243 93.7493 115.024 92.6522 114.018C91.568 113 90.4881 112.186 90.4881 112.186C90.4881 112.186 89.7553 111.597 88.791 110.937C87.724 109.756 86.8455 108.791 86.8455 108.791C86.8455 108.791 82.2258 103.565 81.2572 102.558C81.043 102.341 80.8073 102.179 80.5459 102.066C80.6059 102.032 80.6573 101.999 80.6916 101.974C80.9744 101.769 80.9873 101.31 80.7473 100.634C80.7516 100.588 80.7473 100.546 80.7344 100.513C80.713 100.467 80.6744 100.396 80.623 100.312C80.4602 99.9158 80.2202 99.4566 79.9159 98.9347C78.4289 97.7073 77.7775 96.9141 77.5761 96.9851C77.4604 97.0226 77.1604 97.1855 76.8433 97.294C76.5304 97.4067 76.2262 97.4652 76.2262 97.4652C76.2262 97.4652 75.9176 97.5069 75.5833 97.4944C75.2491 97.4902 74.9062 97.4276 74.7905 97.4276C74.6491 97.4276 74.4434 97.8409 74.032 98.5924C73.6892 98.3168 73.3035 98.0705 72.8492 97.8367C71.6879 97.2355 68.191 95.4529 65.0798 93.6577C63.5199 92.7727 62.0542 91.8793 60.9743 91.2155C60.5886 90.9775 60.2544 90.7688 59.9844 90.5976C59.6801 89.6332 59.2044 88.8358 58.3431 88.0677C57.4731 87.287 54.8247 84.9491 52.5449 82.6696C52.352 82.4776 52.1635 82.2897 51.9706 82.106C52.1249 81.4381 52.1035 80.9663 51.7864 80.6156C51.4778 80.2649 50.5136 79.2421 49.7208 78.2318C48.9151 77.2298 48.2637 76.2613 48.2637 76.2613C48.2637 76.2613 47.6252 75.2802 47.021 74.1572C46.8367 73.8232 46.6653 73.485 46.5024 73.1552C46.5581 73.0717 46.6138 72.9924 46.6696 72.9089C46.781 72.8964 46.8881 72.888 46.991 72.8755C47.4152 73.5143 47.908 74.2407 48.4437 74.9796C49.9779 77.1338 51.8464 79.3465 52.5063 80.052C53.7148 81.3546 55.2018 81.4255 57.5717 81.1542C57.9617 78.8372 58.1031 77.5096 57.066 76.2613C57.0232 76.2154 56.9846 76.1653 56.9374 76.111C58.3388 77.5221 59.7187 79.0292 60.2115 79.5469C60.6829 80.0395 61.2229 80.2816 61.9043 80.3818C62.8985 81.3212 64.2955 82.6404 64.7198 82.9953C65.3497 83.5171 66.3997 83.1038 68.221 82.2188C69.0523 80.4069 69.4338 79.3674 68.8681 78.7787C68.2638 78.1441 65.0069 75.1717 65.0069 75.1717C65.0069 75.1717 64.8869 75.0589 64.6941 74.8753C64.6512 74.5246 64.5184 74.2282 64.2741 73.9818C63.5241 73.2137 59.7573 69.7528 59.3073 69.3395C59.4101 68.0661 59.4401 67.1017 59.2173 66.2918C59.2601 66.3336 59.2944 66.3712 59.333 66.4129C60.0058 68.0536 60.8415 69.2768 62.4699 70.4833C63.7127 71.4102 67.4625 74.153 70.8051 76.7957C74.1563 79.4258 77.1218 81.9182 77.1218 81.9182C77.1218 81.9182 77.2975 82.0685 77.6018 82.3356C77.3232 82.3983 77.0275 82.4692 76.7104 82.5486C76.4361 84.7904 76.4233 86.118 77.5761 87.1534C78.2103 87.7295 80.2288 89.437 82.0329 90.9608C81.9343 91.0026 81.8358 91.0443 81.7329 91.0902C80.4859 92.5723 79.8945 93.474 80.2416 93.9583C80.4259 94.2172 81.0558 94.9478 81.6772 95.5781C81.7801 95.6867 81.8786 95.7911 81.9772 95.8871C81.9429 96.1084 81.9729 96.2712 82.0801 96.3839C82.2729 96.5843 82.9157 97.127 83.5371 97.5779C83.7128 97.7031 83.8799 97.8284 84.0385 97.9369C84.2656 98.3586 84.5742 98.726 85.0027 99.0641C85.7484 99.6569 88.0325 101.36 90.1495 102.897C92.2794 104.42 94.2078 105.806 94.2078 105.806C94.2078 105.806 96.1491 107.188 98.2747 108.708C99.886 109.839 101.613 111.033 102.714 111.772C102.342 112.561 102.234 113.096 102.517 113.488C102.834 113.906 103.576 114.841 104.304 115.939C105.046 117.037 105.834 118.206 106.331 118.953C107.334 118.085 108.088 117.429 108.585 116.995C109.083 116.565 109.331 116.339 109.331 116.339C109.331 116.339 109.43 116.252 109.597 116.093C109.772 115.943 110.017 115.717 110.308 115.409C110.578 115.145 110.87 114.816 111.187 114.444C111.461 114.452 111.684 114.382 111.847 114.219C112.138 113.947 112.914 113.033 113.497 112.115C114.092 111.209 114.512 110.315 114.512 110.315C114.512 110.315 114.966 109.447 115.326 108.424C115.532 107.873 115.699 107.276 115.815 106.783C116.051 106.783 116.299 106.779 116.561 106.775C116.946 105.715 117.195 104.834 117.216 104.045C117.225 103.277 117.028 102.596 116.496 101.953C115.926 101.252 114.075 99.2395 112.177 97.6071C111.238 96.7763 110.295 96.0415 109.593 95.5114C108.881 94.9895 108.423 94.6513 108.423 94.6513C108.423 94.6513 108.195 94.4969 107.823 94.238C107.87 93.5325 107.733 93.0232 107.308 92.6516C106.443 91.9377 102.11 88.3599 102.11 88.3599C102.11 88.3599 97.9104 84.636 97.0705 83.8887C96.7876 83.6507 96.462 83.5422 96.072 83.5338C95.9648 83.4378 95.8577 83.3418 95.7591 83.2583C95.5706 83.1038 95.3906 82.9619 95.2106 82.8408C95.1035 82.7573 94.9963 82.6863 94.8892 82.6195C94.9063 82.1186 94.8592 81.8388 94.7092 81.772C94.5464 81.6969 94.0364 81.5466 93.5736 81.3963C93.1065 81.2418 92.6908 81.1082 92.6908 81.1082C92.6908 81.1082 92.2751 80.9413 91.8251 80.7534C91.3752 80.5655 90.8866 80.3526 90.7152 80.3025C90.4152 80.2148 89.841 80.9872 88.8125 82.415C88.4439 82.1478 88.1482 81.9307 87.964 81.7971C87.2397 81.2878 86.4769 81.1959 85.517 81.3629C83.0443 79.1753 81.0473 77.5054 81.0473 77.5054C81.0473 77.5054 78.0303 74.9337 74.5977 72.2326C72.1336 70.2663 69.4423 68.2582 67.651 66.9515C68.0453 65.8243 68.1396 65.1104 67.6982 64.6845C67.651 64.6428 67.5867 64.5802 67.5096 64.5134C68.1653 62.7015 68.4395 61.6661 67.8696 61.1652C67.5567 60.898 66.5882 60.1507 65.684 59.4577C65.8297 58.8022 66.0997 57.6708 66.4897 56.648C66.7082 56.0009 66.9825 55.4039 67.1882 54.9614C67.3982 54.5314 67.5353 54.2475 67.5353 54.2475C67.5353 54.2475 67.6939 53.9761 67.9381 53.5587C68.1867 53.1454 68.5338 52.5859 68.9495 52.0307C69.7466 50.9118 70.7965 49.8347 71.1351 49.4715C71.1479 49.459 71.1565 49.4465 71.1651 49.4339C71.5936 49.6636 72.0093 49.7596 72.485 49.697C72.8321 49.6552 73.552 49.555 74.422 49.4632C74.4691 49.5007 74.512 49.5383 74.5548 49.5675C74.9877 49.9349 75.2919 50.1311 75.6648 50.0977C75.8705 50.081 76.2947 50.0351 76.8904 50.0393C77.4904 50.0518 78.2489 50.1103 79.046 50.2188C79.2131 50.2355 79.3717 50.2564 79.5302 50.2773C80.2845 51.346 80.833 51.9931 81.8144 52.2311C82.1743 52.3229 82.8986 52.5108 83.7685 52.8114C84.5956 53.1036 85.5555 53.5086 86.4555 53.9761C86.884 54.8236 87.4797 55.5918 88.3625 56.36C88.9496 56.8735 90.1709 57.9172 91.6537 59.178C91.9408 59.9962 92.3951 60.7101 93.145 61.4157C93.5007 61.7496 94.1393 62.3341 94.9363 63.0605C94.6106 63.0814 94.2507 63.119 93.8607 63.1607C92.7979 64.9768 92.2922 66.0664 92.8922 67.0475C93.5436 68.1037 97.0533 73.2429 97.0533 73.2429C97.0533 73.2429 100.486 78.4364 101.223 79.4467C101.416 79.7055 101.652 79.8934 101.943 80.0186C101.913 80.624 102.054 81.15 102.436 81.6385C102.899 82.2396 104.39 83.9722 105.877 85.4459C107.356 86.9321 108.808 88.172 108.808 88.172C108.808 88.172 110.231 89.4412 111.911 90.7103C113.574 91.992 115.502 93.2444 116.166 93.6243C116.513 93.8247 116.861 93.9291 117.225 93.9541C117.388 94.1086 117.542 94.2589 117.692 94.405C118.433 95.1147 119.153 95.7326 119.543 96.0207C120.953 97.0936 122.809 96.9183 124.583 95.478C124.403 94.906 124.309 94.4092 124.24 93.9667C126.036 93.0357 127 92.4637 126.966 91.6204C126.94 91.157 126.85 89.7793 126.764 88.5185C126.743 88.1219 126.726 87.7379 126.709 87.3955C127.321 87.0281 127.638 86.7067 127.621 86.3226C127.604 85.9677 127.48 84.8865 127.398 83.9012C127.373 83.563 127.347 83.2416 127.326 82.9535C127.334 82.5778 127.338 82.1812 127.338 81.7679C127.373 81.5424 127.411 81.3128 127.446 81.079C127.72 79.192 127.767 77.4636 127.767 77.4636C127.767 77.4636 127.87 75.7311 127.754 73.8316C127.664 71.9278 127.321 69.878 127.158 69.2059C127.013 68.5838 126.64 68.1455 126.04 67.8031C126.023 67.6904 126.006 67.5777 125.984 67.4566C125.847 66.7302 125.521 65.2857 124.96 63.574C124.394 61.8665 123.589 59.9085 122.667 58.1092C121.755 56.314 120.739 54.6859 119.946 53.5086Z" fill="#FF914D"/>
<path d="M121.3 129.064C120.118 128.083 119.14 127.357 118.476 126.868C117.803 126.38 117.448 126.117 117.448 126.117C117.448 126.117 116.376 125.365 114.294 123.896C112.189 122.418 109.083 120.118 105.234 116.945C101.377 113.772 96.7105 109.752 91.2894 104.917C88.5853 102.5 85.6884 99.8782 82.6157 97.0477C81.8529 96.3422 81.073 95.6241 80.2802 94.8893C79.8859 94.5261 79.4874 94.1545 79.0888 93.783L77.9789 92.7435L77.6789 92.4596C77.6489 92.4095 77.5375 92.3719 77.5718 92.3176L77.7003 92.1423C77.876 91.9168 78.0432 91.6831 78.2103 91.4409L78.3432 91.2614L78.4031 91.1696L78.4203 91.1362L78.4803 90.99C78.5317 90.8898 78.5231 90.8272 78.5489 90.7437C78.5788 90.5767 78.596 90.393 78.5788 90.1968C78.5531 89.8002 78.4374 89.3535 78.2703 88.9068C77.936 87.9967 77.3404 87.12 76.6933 86.1347C73.7149 81.5925 69.468 76.3156 63.9141 71.7483C62.5299 70.6044 61.0514 69.5232 59.5258 68.4962L58.3559 67.7489C58.1631 67.6194 57.9659 67.5025 57.7645 67.3857L57.6145 67.298L57.6017 67.2896C59.8301 69.5524 62.0757 71.8318 64.2741 74.0654C66.0697 75.9106 67.7924 77.6849 69.2623 79.192C69.6309 79.5761 69.9694 79.9226 70.2651 80.2274C70.4451 80.4111 70.6294 80.6198 70.7622 80.8035C70.7965 80.8494 70.8308 80.8953 70.8608 80.9413C70.9079 81.0081 70.9551 81.079 70.9936 81.1458C71.0794 81.2753 71.1608 81.4005 71.2208 81.5257C71.4479 81.9098 71.5508 82.3023 71.6193 82.6655C71.6579 83.0287 71.6279 83.3543 71.5208 83.6507C71.2893 84.2561 70.7022 84.661 70.1023 84.7445C69.498 84.8781 68.8852 84.7195 68.311 84.4064L67.8953 84.1559C67.7881 84.0849 67.7196 84.0265 67.6253 83.9597C67.4496 83.8261 67.3253 83.7133 67.1882 83.5923C66.9868 83.4169 66.7982 83.2332 66.6139 83.0454C66.3825 82.9535 66.1511 82.8533 65.924 82.749C65.3154 82.4609 64.7112 82.1269 64.0941 81.7261C64.3555 82.0309 64.6126 82.3482 64.874 82.7114C65.0626 82.9744 65.2554 83.2499 65.4397 83.5422C65.4997 83.6257 65.7268 84.0014 65.8683 84.2602C66.0354 84.5483 66.1897 84.8364 66.3268 85.1244C66.4897 85.4208 66.5839 85.6922 66.7039 85.9803C66.8111 86.26 66.8068 86.4812 66.8539 86.7276C66.8582 86.9321 66.8882 87.1283 66.8668 87.3454C66.8453 87.5667 66.7853 87.7629 66.7039 87.9383C66.6096 88.1094 66.5111 88.2555 66.3054 88.41C66.1254 88.5436 65.9968 88.5895 65.8211 88.6438C65.4826 88.7356 65.024 88.648 64.4626 88.4017C63.9055 88.1553 63.267 87.7295 62.6456 87.2536C62.4828 87.1325 62.3285 87.0114 62.1828 86.8904L61.81 86.5856L61.3343 86.1848C60.7215 85.6713 60.0958 85.1495 59.4701 84.6276C58.2059 83.5881 56.9503 82.5277 55.7504 81.4798C54.5419 80.4403 53.3848 79.4383 52.3135 78.5199C51.7864 78.0565 51.2635 77.6223 50.805 77.2006C50.5779 76.9961 50.3507 76.7957 50.1365 76.6036C49.9822 76.4617 50.0593 76.5327 50.0379 76.516V76.5201C50.0508 76.5243 50.0508 76.5201 50.0422 76.5118C50.0036 76.4742 49.7079 76.2822 49.7551 76.6579C49.7551 76.6788 49.7722 76.7205 49.7851 76.7539L49.9093 76.971L50.1065 77.3134C51.5378 78.3362 52.8363 79.4342 54.4605 81.1166C56.1446 82.8617 59.5173 86.3727 63.627 90.6477C64.8098 91.8668 66.0268 93.0649 67.4025 93.9792C68.0924 94.4343 68.8081 94.8183 69.5709 95.0814C70.3294 95.3485 71.1351 95.5072 71.9279 95.5281C72.3221 95.5322 72.7164 95.5114 73.0935 95.4362C73.2863 95.4112 73.4663 95.3527 73.6506 95.3068L73.9206 95.2191C73.9677 95.2108 74.0106 95.1857 74.0534 95.169L74.332 95.048C74.5505 94.9352 74.7605 94.8309 74.9748 94.7307L75.2919 94.5804L75.4548 94.5052C75.5019 94.5261 75.5405 94.5804 75.5876 94.6138L76.629 95.5823L77.6961 96.5801C79.0802 97.8952 80.4816 99.227 81.8915 100.567C87.4968 105.957 93.1622 111.601 98.5104 117.308C99.8603 118.723 101.146 120.18 102.453 121.596C103.721 123.057 105.02 124.455 106.216 125.921C108.68 128.772 110.938 131.753 112.952 134.654C113.934 136.091 114.902 137.426 116.012 138.508C117.105 139.597 118.352 140.411 119.676 140.837C120.983 141.276 122.346 141.267 123.404 140.816C124.489 140.353 125.371 139.468 125.899 138.474C126.443 137.477 126.627 136.379 126.481 135.431C126.34 134.5 125.851 133.644 125.221 132.868C123.91 131.315 122.462 130.041 121.3 129.064ZM63.4641 84.8865C63.4684 84.8906 63.477 84.9032 63.4641 84.8865V84.8865ZM50.2522 69.5983C50.2522 69.5983 50.2479 69.6108 50.2522 69.5983V69.5983ZM50.3422 68.6214C50.3464 68.6256 50.3507 68.6339 50.355 68.6381L50.3422 68.6214ZM51.2807 68.826C51.2892 68.8218 51.2892 68.8218 51.2764 68.8176C51.2764 68.8176 51.2764 68.826 51.2807 68.826ZM114.414 108.662C114.834 109.451 115.001 109.977 114.666 110.507C114.486 110.8 113.891 111.63 113.269 112.336C112.652 113.05 112.022 113.634 112.022 113.634C112.022 113.634 111.41 114.231 110.668 114.816C109.931 115.413 109.065 115.976 108.765 116.147C108.577 116.256 108.388 116.298 108.191 116.302C111.354 118.861 113.874 120.727 115.699 122.001C117.795 123.478 118.87 124.238 118.87 124.238C118.87 124.238 119.235 124.501 119.92 125.002C120.606 125.512 121.617 126.255 122.856 127.29C124.103 128.342 125.569 129.603 127.107 131.423C127.488 131.895 127.861 132.425 128.178 133.03C128.491 133.627 128.748 134.358 128.86 135.089C129.078 136.575 128.787 138.153 128.028 139.56C127.283 140.958 126.044 142.24 124.36 142.966C122.629 143.693 120.662 143.639 118.918 143.062C117.169 142.503 115.592 141.443 114.302 140.161C112.999 138.883 111.949 137.418 110.951 135.961C108.963 133.101 106.803 130.246 104.356 127.415C103.181 125.975 101.892 124.585 100.64 123.144C99.346 121.738 98.069 120.297 96.7276 118.894C91.418 113.229 85.7784 107.602 80.1945 102.241C78.7974 100.909 77.4004 99.586 76.0204 98.2751C75.6862 97.9578 75.3476 97.6405 75.0091 97.3274L74.962 97.3483C74.8977 97.3775 74.8291 97.4067 74.7648 97.4276L74.3534 97.5612C74.0834 97.6363 73.8049 97.7115 73.5306 97.7532C72.9735 97.8534 72.4207 97.891 71.8764 97.8743C69.6994 97.8367 67.6596 97.0185 66.0397 95.9247C64.3984 94.8309 63.087 93.5116 61.8657 92.2592C57.7645 87.9758 54.3919 84.4606 52.7077 82.7072C51.1778 81.0916 50.1622 79.8057 49.2494 78.4322C49.1851 78.3821 49.1208 78.332 49.0608 78.2777L48.6666 77.9479L48.4694 77.7726L48.178 77.4887C47.7623 77.0587 47.3252 76.5869 46.8752 76.0818C46.4424 75.585 45.9067 74.9963 45.7653 74.5872C45.6068 74.1739 45.5982 73.8942 45.6239 73.6562C45.6239 73.4684 45.851 72.863 46.3353 72.5332C46.4853 72.4205 46.6867 72.3203 46.841 72.266C46.991 72.2201 47.1367 72.1825 47.3766 72.1658C47.6295 72.1742 47.9552 72.1742 48.508 72.4789C49.0522 72.7795 49.7422 73.2179 50.5436 73.8524C52.3392 75.3971 54.7433 77.472 57.3403 79.7097C58.523 80.7409 59.7744 81.7971 61.0386 82.8408C61.6728 83.3668 62.3028 83.897 62.9242 84.4189C63.1042 84.5692 63.2799 84.7195 63.4513 84.8656C63.4384 84.8447 63.4256 84.8197 63.3999 84.7779C63.2413 84.5274 63.0742 84.2895 62.9113 84.064C62.5856 83.609 62.2556 83.2082 61.93 82.8533C61.2871 82.1478 60.7086 81.6677 60.2458 81.2711C59.8044 80.887 59.5601 80.6783 59.5601 80.6783C59.5601 80.6783 58.7416 79.956 57.4003 78.7829C56.0718 77.5889 54.2333 75.9315 52.2706 73.9151C51.7821 73.4099 51.285 72.8797 50.7921 72.3036C50.3036 71.7316 49.8151 71.1388 49.3608 70.379C49.2494 70.1911 49.138 69.9657 49.0394 69.7152C48.9923 69.5649 48.9451 69.4522 48.9065 69.2727C48.8937 69.1725 48.8808 69.0723 48.868 68.9721L48.8594 68.826C48.8637 68.7592 48.8723 68.6798 48.8851 68.613C48.9065 68.4711 48.9408 68.325 48.988 68.1914C49.0651 68.0369 49.168 67.8825 49.2837 67.7489C49.3608 67.6695 49.3608 67.6361 49.5065 67.5359C49.6308 67.4524 49.7808 67.3815 49.9265 67.3314C49.9993 67.3063 50.0765 67.2896 50.145 67.2729C50.205 67.2646 50.235 67.2688 50.2779 67.2646C50.3593 67.2604 50.445 67.2646 50.5264 67.2646C50.6036 67.2729 50.7107 67.2855 50.7578 67.298L50.895 67.3356C50.9893 67.3606 51.0835 67.3898 51.165 67.4232L51.5378 67.5944C52.3692 68.0578 52.952 68.5337 53.5691 69.018C55.9389 70.9635 57.9959 72.9757 59.7315 74.6498C60.7258 75.6309 61.5271 76.4283 62.1614 77.0545C62.7742 77.6724 63.2327 78.0815 63.5584 78.3738C64.8698 79.526 65.894 80.4361 66.9011 81.3253C67.1068 81.5049 67.3082 81.6802 67.5096 81.8639C67.7324 81.9683 67.9596 82.0726 68.1867 82.1812C68.3324 82.248 68.491 82.3273 68.6067 82.3732L68.7824 82.4442L68.8338 82.44C68.8938 82.4275 68.9238 82.4025 68.9366 82.3607C68.9623 82.2897 68.8766 82.2438 68.8809 82.2563L68.8766 82.2522L68.8252 82.1854C68.7481 82.0768 68.6709 81.9933 68.5509 81.8723C68.2552 81.5675 67.9124 81.2168 67.5396 80.8369C66.0654 79.3214 64.3341 77.543 62.5299 75.6935C61.2143 74.3576 59.8858 73.005 58.5488 71.6481L56.556 69.6234L56.0418 69.1057L55.7718 68.8218C55.6218 68.6506 55.4547 68.4669 55.3175 68.2832C55.0304 67.9117 54.7861 67.5234 54.6362 67.1519C54.499 66.7678 54.4776 66.4505 54.5247 66.1123C54.619 65.4193 55.1633 64.7555 55.8447 64.4925C56.1832 64.3547 56.5346 64.313 56.8603 64.3422C57.1817 64.3589 57.6102 64.5092 58.0216 64.7847L59.0416 65.3859C59.2516 65.5112 59.4616 65.6322 59.663 65.7658L60.8843 66.5507C62.4828 67.6278 64.0212 68.7592 65.4697 69.949C71.2636 74.7166 75.6476 80.1773 78.7203 84.8698C79.3545 85.8342 80.0745 86.8695 80.5287 88.0927C80.7558 88.6939 80.9358 89.3452 80.9873 90.0549C81.0087 90.4097 80.9915 90.7855 80.923 91.1612C80.8758 91.3407 80.8458 91.5578 80.7773 91.7039L80.6873 91.9461L80.6616 92.0087C81.9043 93.1526 83.1043 94.2673 84.2742 95.3444C87.334 98.1624 90.2181 100.78 92.9179 103.193C98.3132 108.007 102.959 112.01 106.786 115.154C106.837 115.2 106.884 115.237 106.94 115.279C107.013 114.745 107.133 114.398 107.484 114.169C107.737 114.006 108.495 113.513 109.147 112.995C109.798 112.486 110.347 111.964 110.347 111.964C110.347 111.964 110.887 111.442 111.427 110.816C111.971 110.198 112.494 109.464 112.665 109.221C112.987 108.775 113.497 108.725 114.414 108.662ZM92.5751 71.5521C92.5065 71.0177 92.4251 70.7046 92.4251 70.7046C92.4251 70.7046 92.1851 69.423 91.6323 68.0995C91.1137 66.7636 90.2566 65.4444 89.9395 65.0311C89.3653 64.2587 88.6625 64.0792 87.5954 64.0416C87.544 65.0937 87.5011 65.6782 87.9639 66.3545C88.2168 66.7177 88.9453 67.8407 89.391 68.9679C89.8624 70.0951 90.0767 71.1722 90.0767 71.1722C90.0767 71.1722 90.1409 71.4436 90.1881 71.8318C90.2352 72.2201 90.2566 72.7211 90.1409 73.1552C90.0424 73.5769 89.7895 73.9693 89.5324 74.1781C89.2667 74.4035 89.0567 74.4536 88.9453 74.4787C88.731 74.5204 88.5553 74.6081 88.2982 74.7333C88.0454 74.8502 87.7111 75.0256 87.1668 74.9963C87.1068 76.0609 88.0025 76.9627 89.3481 76.7832C89.7124 76.7372 90.4881 76.5118 91.1223 75.9482C91.778 75.4013 92.2837 74.5663 92.4893 73.7021C92.6951 72.8547 92.6393 72.0781 92.5751 71.5521ZM72.755 60.8187C72.755 60.8187 72.7721 60.4137 72.9135 59.8292C73.0549 59.2573 73.3763 58.51 73.9377 57.8963C74.4863 57.2743 75.2276 56.8609 75.8833 56.7524C76.5561 56.6397 77.2375 56.7357 77.5761 56.7775C78.2189 56.8651 78.7117 56.8735 79.2174 56.8442C79.7231 56.8109 80.2459 56.7274 80.9573 56.7566C80.3959 55.4749 79.4616 54.7193 77.9403 54.4646C77.5203 54.4103 76.6461 54.2433 75.4505 54.4437C74.2291 54.6358 72.9564 55.3872 72.1207 56.3474C71.2593 57.2951 70.7794 58.4307 70.578 59.2698C70.3765 60.1131 70.3637 60.6559 70.3637 60.6559C70.3637 60.6559 70.3037 61.2028 70.3637 62.021C70.4194 62.8476 70.6208 63.9331 70.9808 64.9977C71.3279 66.0664 71.8336 67.1352 72.335 67.9994C72.8407 68.8552 73.3335 69.5148 73.5949 69.8321C74.5505 71.001 75.5148 71.3475 76.9118 71.5354C76.5047 70.212 76.299 69.4397 75.4976 68.4168C75.2834 68.1371 74.8677 67.5735 74.4348 66.8346C74.0063 66.0998 73.5778 65.1855 73.2778 64.2754C72.9649 63.3695 72.8021 62.4928 72.7635 61.854C72.7164 61.2153 72.755 60.8187 72.755 60.8187ZM139.543 113.643C136.852 111.15 133.741 109.038 130.673 106.879C124.544 102.55 118.656 98.2417 113.492 93.9542C112.202 92.8812 110.951 91.8208 109.755 90.7646C109.155 90.2386 108.577 89.7084 108.003 89.1865C107.72 88.9235 107.437 88.6647 107.154 88.4058C106.936 88.2013 106.721 88.0009 106.507 87.7963C106.117 87.4248 105.748 87.0741 105.414 86.7526C104.754 86.1055 104.227 85.5795 103.871 85.2288C102.903 84.2435 102.14 83.3668 101.493 82.511H101.489C101.219 82.2605 100.966 81.9808 100.696 81.6927C100.143 81.1208 99.6589 80.4278 99.1232 79.6471C98.6604 78.9123 97.8119 77.5346 97.0019 75.7896C96.8948 75.5725 96.7919 75.3512 96.6891 75.1216L96.5348 74.7792C96.3977 74.4745 96.2605 74.1697 96.1234 73.865L95.712 72.8922C94.6149 70.2913 93.5864 67.6487 92.2922 65.102C91.0023 62.5637 89.3867 60.1716 87.4068 58.0424C85.4355 55.93 83.13 54.0722 80.5459 52.8615C79.256 52.2687 77.9103 51.776 76.5304 51.584C76.1919 51.5047 75.8405 51.488 75.4976 51.4587C75.1505 51.442 74.8077 51.3752 74.4648 51.4086L73.4321 51.4337C73.1106 51.4546 72.8321 51.4963 72.5364 51.5756C71.375 51.872 70.3037 52.6152 69.5152 53.5587C68.7224 54.4938 68.2253 55.6586 67.9681 56.8818C67.4624 59.3324 67.891 61.9542 68.7138 64.2378C69.5452 66.5465 70.8651 68.563 72.3221 70.283C75.2791 73.7314 78.8574 75.8021 81.7972 77.1338C84.7627 78.4656 87.1411 79.1169 88.4396 79.4759C89.2753 79.693 89.3781 79.718 89.4724 79.7431C90.4409 79.9811 91.3623 80.1856 92.2408 80.3651C92.6351 80.4403 93.0036 80.5196 93.355 80.5864H93.3636L93.5221 80.5655C93.7321 80.528 93.9335 80.5614 94.1221 80.5822C94.4478 80.6449 94.7135 80.7325 94.9363 80.8286C95.382 81.0206 95.742 81.221 96.072 81.4214C96.7405 81.8305 97.2976 82.2355 97.8076 82.6237C99.8303 84.1809 101.133 85.4041 102.089 86.2642C103.974 88.0134 104.339 88.3933 104.339 88.3933C104.339 88.3933 105.586 89.579 107.715 91.7499C109.841 93.9208 112.845 97.0936 116.338 101.068C119.83 105.055 123.854 109.814 127.844 115.333C129.863 118.097 131.555 121.203 134.277 122.994C135.618 123.875 137.216 124.418 138.716 124.272C140.178 124.142 141.528 123.215 142.337 121.888C143.147 120.581 143.4 118.924 142.813 117.6C142.23 116.214 140.863 114.903 139.543 113.643ZM132.082 104.971C135.134 107.113 138.335 109.28 141.206 111.943C141.922 112.616 142.612 113.288 143.285 114.043C143.953 114.803 144.604 115.667 145.046 116.699C145.5 117.755 145.637 118.924 145.5 120.022C145.363 121.124 144.982 122.168 144.407 123.099C143.833 124.025 143.066 124.848 142.132 125.466C141.21 126.096 140.07 126.493 138.952 126.61C136.702 126.818 134.607 126.038 132.931 124.944C131.221 123.821 129.948 122.36 128.851 120.915C127.763 119.454 126.85 118.022 125.873 116.682C121.965 111.267 117.966 106.533 114.516 102.592C111.05 98.6467 108.075 95.5114 105.976 93.3655C103.876 91.2155 102.65 90.0465 102.65 90.0465C102.65 90.0465 102.286 89.6708 100.439 87.9675C99.5132 87.1242 98.2233 85.9218 96.3334 84.4648C95.862 84.11 95.352 83.7384 94.8078 83.4086C94.5378 83.2374 94.2549 83.0829 94.0064 82.9827C93.9293 82.9494 93.865 82.9243 93.8093 82.916C93.8093 82.9201 93.8093 82.9327 93.805 82.941L93.7878 83.0412L93.7193 83.0329L93.6978 83.0287C93.6721 83.0245 93.6464 83.0162 93.6207 83.012L93.3379 82.966C92.8236 82.8617 92.2922 82.7615 91.748 82.6529C90.8437 82.4693 89.8838 82.2605 88.8767 82.0058C88.7825 81.9808 88.671 81.9557 87.8054 81.7303C86.4469 81.3546 83.9528 80.6783 80.7858 79.263C79.2088 78.5407 77.4604 77.639 75.6862 76.4199C73.9035 75.2051 72.1121 73.6771 70.4751 71.7901C68.8681 69.8947 67.3896 67.6445 66.4425 65.0227C65.5126 62.4176 64.9898 59.4702 65.6069 56.4101C65.9197 54.8988 66.5625 53.3541 67.6467 52.0724C68.7095 50.7991 70.1708 49.7596 71.915 49.3045C72.3436 49.1918 72.8107 49.1167 73.2478 49.0874L74.4734 49.0582C74.8848 49.0248 75.2962 49.0958 75.7033 49.1167C76.1147 49.1501 76.5304 49.1751 76.9332 49.267C78.566 49.5008 80.1216 50.0685 81.5958 50.7407C84.5442 52.1267 87.0597 54.1765 89.1981 56.4685C91.3323 58.7605 93.0936 61.3656 94.4521 64.0542C95.8148 66.7344 96.8733 69.448 97.949 71.9988C98.2061 72.6167 98.5061 73.3055 98.7461 73.8316L98.8918 74.1656C98.9903 74.3826 99.0889 74.5956 99.1875 74.8001C99.9631 76.4659 100.739 77.7267 101.154 78.4113C101.639 79.1294 102.033 79.7932 102.453 80.3651C102.65 80.6616 102.839 80.9413 103.023 81.2126C103.82 81.8931 104.643 82.6529 105.59 83.6006C105.937 83.943 106.46 84.4523 107.111 85.0869C107.437 85.4 107.797 85.7423 108.187 86.1097C108.393 86.3101 108.607 86.5063 108.821 86.7067C109.095 86.9572 109.374 87.216 109.657 87.4707C110.214 87.9842 110.784 88.506 111.38 89.0195C112.554 90.0632 113.784 91.1069 115.056 92.1632C120.139 96.3839 125.984 100.667 132.082 104.971ZM67.3253 113.405C67.1882 113.538 67.0339 113.672 66.9011 113.776C66.8068 113.847 66.8282 113.839 66.7296 113.901L66.4725 114.043C66.1211 114.227 65.714 114.377 65.2769 114.498C64.4026 114.732 63.3741 114.841 62.4014 114.874C61.4243 114.924 60.4815 114.87 59.6587 114.812C56.9846 114.544 55.3475 114.085 54.5033 113.864C52.7934 113.405 51.4521 113.025 50.1407 112.699C48.838 112.365 47.5652 112.09 46.0482 111.651C47.1795 112.737 48.2423 113.555 49.4508 114.273C50.6593 114.987 52.0263 115.601 53.8605 116.118C54.7647 116.36 56.5046 116.857 59.4401 117.154C60.3486 117.22 61.3943 117.283 62.4999 117.229C63.6056 117.183 64.7583 117.07 65.924 116.761C66.5025 116.603 67.0768 116.394 67.6039 116.118C67.7367 116.047 67.8696 115.976 67.9938 115.897C68.1053 115.839 68.3195 115.688 68.4095 115.609C68.6495 115.421 68.8381 115.246 69.0266 115.07C69.3909 114.711 69.7037 114.352 69.9737 113.981C70.0423 113.885 70.1023 113.789 70.1665 113.701C70.2351 113.584 70.3251 113.409 70.4023 113.275C70.488 113.133 70.5222 112.979 70.578 112.841C70.638 112.695 70.6808 112.561 70.6894 112.424C70.7837 111.797 70.6379 111.159 70.2008 110.758C69.8323 110.307 69.2538 110.119 68.6666 110.086C67.9638 110.098 67.3253 110.111 66.7468 110.119C65.7954 110.169 65.0369 110.094 64.4498 110.086C63.8627 110.077 63.4513 110.027 63.1856 110.002C62.9199 109.977 62.7956 109.969 62.7956 109.969C62.7956 109.969 61.9085 109.914 60.5072 109.685C59.0973 109.48 57.1774 109.063 55.129 108.437C51.0021 107.23 46.5453 104.804 44.1669 103.03C42.5213 101.849 41.8142 101.181 41.3428 100.809C40.6914 100.225 40.0957 99.7071 39.5386 99.2353C39.0029 98.7427 38.4672 98.3001 37.953 97.8868C37.4644 97.4735 36.9973 97.0727 36.5945 96.5968C36.2002 96.1209 35.836 95.5531 35.8103 94.7724C35.446 95.4696 35.4803 96.3171 35.6817 97.031C35.8831 97.7574 36.226 98.3962 36.6159 98.9973C37.0102 99.5818 37.4473 100.137 37.9401 100.738C38.4587 101.319 39.0458 101.911 39.74 102.546C40.2371 102.943 40.9871 103.665 42.7441 104.926C45.2682 106.817 50.0122 109.397 54.4005 110.674C56.5817 111.342 58.6302 111.781 60.1301 111.989C61.6214 112.24 62.5685 112.294 62.5685 112.294C62.5685 112.294 62.697 112.302 62.9842 112.332C63.267 112.357 63.7084 112.411 64.3341 112.424C64.9598 112.432 65.7697 112.507 66.7896 112.461C67.1967 112.453 67.6467 112.444 68.1395 112.428C68.101 112.49 68.0538 112.557 68.011 112.628C67.8353 112.866 67.5953 113.137 67.3253 113.405ZM96.0334 34.2961C96.0505 34.3086 96.0377 34.2961 96.0334 34.2961V34.2961ZM94.8078 33.6657C95.082 33.8118 95.4934 34.0205 95.9991 34.2794L95.6006 33.9788C95.142 33.6198 94.6578 33.2816 94.165 32.956C93.685 32.6136 93.175 32.3089 92.6693 32.0041C90.6552 30.7892 88.5639 29.8416 86.7726 29.1945C84.2228 28.2635 82.5557 27.9462 81.7072 27.75C79.9802 27.3951 78.626 27.1196 77.2804 26.844C75.9647 26.5393 74.7005 26.2596 73.1449 25.9381C74.662 25.5123 75.9905 25.2159 77.4004 25.1324C78.8188 25.0155 80.3187 25.1157 82.1915 25.4622C83.1043 25.6626 84.887 25.9966 87.6211 26.986C89.5367 27.679 91.7823 28.6977 93.9378 30.0002C94.4778 30.33 95.022 30.6556 95.5406 31.023C96.072 31.3737 96.5905 31.7369 97.079 32.1252L97.4562 32.4091C97.5376 32.4759 97.889 32.7222 98.0433 32.8933C98.4161 33.2649 98.7804 33.6323 99.1403 33.9997L99.6889 34.5424C99.8603 34.7261 100.079 34.914 100.126 35.0559C100.293 35.3732 100.405 35.6821 100.469 35.9827C100.585 36.5797 100.537 37.1433 100.16 37.6986C99.9846 37.9616 99.616 38.2246 99.586 38.2329C99.4832 38.3081 99.3846 38.3749 99.286 38.4417L99.2089 38.4876L99.1746 38.5126C99.1618 38.521 99.1618 38.5377 99.1018 38.5043C98.9218 38.425 98.7504 38.3457 98.5747 38.2663C98.2275 38.1077 97.889 37.9574 97.5676 37.8113C97.3962 37.732 97.2505 37.6735 97.079 37.5858C96.8991 37.4898 96.7276 37.3896 96.5562 37.2894C96.2134 37.0974 95.8877 36.9137 95.5706 36.7383C95.2877 36.5797 95.0135 36.4294 94.7563 36.2833C94.6192 36.2123 94.4821 36.1455 94.3578 36.0829C94.105 35.9493 93.8907 35.8408 93.7193 35.7531C93.3593 35.5778 93.1665 35.4859 93.1665 35.4859C93.1665 35.4859 92.2408 35.0183 90.7023 34.3838C89.1639 33.7492 87.0083 32.9476 84.5742 32.3298C82.1529 31.6994 79.4445 31.2485 76.9204 31.1065C74.392 30.9354 72.0436 31.0731 70.3123 31.2693C68.2895 31.5157 67.3253 31.7244 66.7425 31.8538C63.2756 32.6345 61.2871 32.981 58.1888 33.6657C60.58 31.6493 62.5171 30.4427 66.2197 29.5744C66.8453 29.4324 67.8696 29.2028 70.0337 28.9356C71.8807 28.7227 74.3791 28.5766 77.0747 28.7561C79.7659 28.9106 82.6286 29.3907 85.187 30.0628C87.7625 30.7141 90.0295 31.5616 91.6408 32.2296C93.2607 32.9017 94.2249 33.3902 94.2249 33.3902C94.2249 33.3902 94.4349 33.4903 94.8078 33.6657ZM59.663 132.371C59.5473 132.279 59.4016 132.162 59.1359 132.033C58.6259 131.77 57.7217 131.578 56.8732 132.033C56.4018 132.283 55.9475 132.805 55.7847 133.381C55.7032 133.657 55.6647 133.957 55.6775 134.17C55.6732 134.379 55.7118 134.55 55.7332 134.663C55.8575 135.293 56.4403 135.656 57.0189 135.585C57.1174 135.677 57.246 135.79 57.4174 135.894C57.5374 135.982 57.8202 136.111 58.0345 136.157C58.2659 136.216 58.4973 136.228 58.7287 136.212C59.1787 136.17 59.6373 136.015 60.0272 135.661C60.4129 135.327 60.6058 134.742 60.5758 134.362C60.6229 133.607 60.3186 133.131 60.1515 132.884C59.9458 132.609 59.8215 132.513 59.8215 132.513C59.8215 132.513 59.7744 132.454 59.663 132.371ZM100.525 130.045C100.529 130.025 100.529 130.029 100.525 130.045V130.045ZM100.52 130.066C100.52 130.07 100.52 130.07 100.52 130.075C100.52 130.07 100.52 130.07 100.52 130.066ZM100.375 130.283C100.34 130.279 100.319 130.271 100.297 130.267C100.353 130.325 100.405 130.384 100.452 130.434C100.456 130.392 100.465 130.354 100.473 130.321C100.439 130.304 100.409 130.292 100.375 130.283ZM100.52 130.075C100.52 130.07 100.52 130.07 100.52 130.066V130.075ZM101.167 128.317C101.917 128.551 102.457 129.173 102.71 129.707C102.984 130.25 103.083 130.797 103.079 131.239C103.079 131.665 102.997 131.957 102.997 131.957C102.997 131.957 102.984 132.028 102.946 132.158C102.903 132.287 102.839 132.479 102.702 132.717C102.56 132.951 102.329 133.252 101.952 133.477C101.583 133.703 101.082 133.824 100.593 133.757C99.6203 133.602 99.0718 132.989 98.7718 132.425C98.4632 131.782 98.4975 131.348 98.4932 131.131C98.5189 130.718 98.6775 130.459 98.9432 130.275C98.8489 130.146 98.7889 129.995 98.7761 129.849C98.7032 129.386 98.8746 128.922 99.3418 128.588C99.4703 128.501 99.6803 128.371 100.002 128.284C100.16 128.238 100.357 128.213 100.572 128.217C100.679 128.221 100.803 128.234 100.902 128.25C100.983 128.267 101.077 128.288 101.167 128.317ZM134.782 91.9962C134.782 91.9962 134.782 92.0003 134.782 91.9962V91.9962ZM134.637 91.6831C134.649 91.6413 134.367 91.7666 134.332 91.8417C134.247 91.9628 133.818 91.7165 133.042 92.1339C132.25 91.7791 131.984 90.9817 132.472 90.368C132.605 90.1968 132.897 89.8795 133.381 89.6332C133.852 89.3786 134.572 89.2241 135.262 89.412C135.974 89.5998 136.441 90.0674 136.681 90.4097C136.925 90.7646 137.006 91.0276 137.006 91.0276C137.006 91.0276 137.105 91.2322 137.169 91.6538C137.225 92.0379 137.208 92.827 136.646 93.5033C136.334 93.8999 135.674 94.2714 135.065 94.3257C134.482 94.3925 133.985 94.2589 133.762 94.1629C132.961 93.8665 132.777 92.9063 133.415 92.3009C133.835 92.3761 134.152 92.2675 134.315 92.1632C134.491 92.0546 134.559 91.9628 134.607 91.9795C134.628 91.9837 134.714 92.0003 134.769 91.992L134.782 91.9878C134.782 91.9837 134.787 91.9711 134.782 91.9377C134.774 91.8835 134.761 91.8375 134.761 91.8375C134.782 91.8501 134.628 91.6413 134.637 91.6831ZM134.311 48.1565C134.311 48.1481 134.311 48.1481 134.311 48.1565V48.1565ZM134.461 48.6115L134.478 48.6282C134.478 48.6282 134.474 48.6199 134.461 48.6115ZM134.898 46.449C135.091 46.5116 135.241 46.5826 135.408 46.6828C135.725 46.8831 135.986 47.1545 136.158 47.4217C136.509 47.9644 136.604 48.4696 136.651 48.8203C136.694 49.1793 136.681 49.4089 136.681 49.4089C136.681 49.4089 136.676 49.4924 136.668 49.6469C136.642 49.7805 136.681 50.1312 136.325 50.6572C136.158 50.8993 135.884 51.1248 135.592 51.2458C135.305 51.3627 135.022 51.4045 134.769 51.4045C134.259 51.3919 133.839 51.2584 133.419 50.9912C132.708 50.5319 132.331 49.8013 132.232 49.5133C132.078 49.0666 132.185 48.6658 132.498 48.361C132.49 48.3443 132.481 48.3276 132.472 48.3151C132.314 47.8684 132.417 47.4008 132.747 47.0418C132.935 46.8623 133.312 46.4364 134.199 46.3529C134.422 46.3404 134.658 46.3696 134.898 46.449ZM100.186 16.119V16.1148V16.119ZM99.9717 16.1899C100.019 16.2108 100.057 16.2358 100.096 16.2525C100.13 16.2191 100.152 16.1857 100.16 16.1607C100.173 16.1357 100.177 16.1315 100.177 16.1231C100.173 16.1148 100.16 16.1148 100.139 16.1064C100.143 16.0897 100.156 16.0188 100.156 15.952C100.105 15.9895 100.027 16.073 99.9717 16.1899ZM100.066 15.6848C100.045 15.6597 100.036 15.6472 100.066 15.6848V15.6848ZM101.754 14.3488C102.016 14.5659 102.196 14.8164 102.324 15.0419C102.444 15.2673 102.5 15.476 102.53 15.618C102.569 15.7641 102.569 15.8434 102.569 15.8434C102.569 15.8434 102.594 15.9895 102.586 16.2484C102.564 16.503 102.492 16.8621 102.324 17.1919C101.999 17.8682 101.279 18.4902 100.413 18.6865L100.066 18.7616L99.7574 18.6531C98.7546 18.3024 98.399 17.5384 98.2918 17.2628C98.1804 16.9915 98.1804 16.7285 98.2533 16.4947C98.159 16.3402 98.1033 16.1607 98.0861 15.952C98.0775 15.6973 98.0304 15.1086 98.5747 14.4532C99.1532 13.7602 100.169 13.6224 100.859 13.8604C101.214 13.9689 101.51 14.1443 101.754 14.3488ZM49.1422 14.925C49.1508 14.925 49.1508 14.925 49.1551 14.9291L49.1508 14.925C49.1465 14.925 49.1465 14.9208 49.1422 14.925ZM48.3966 17.1376C48.2723 17.075 48.148 16.9998 48.0323 16.9122C47.9252 16.8328 47.8352 16.7577 47.7409 16.67C47.3895 16.336 47.1709 15.9394 47.0981 15.7557C46.9652 15.4468 47.0338 15.1462 47.2524 14.8916C47.1667 14.6578 47.1624 14.3948 47.2738 14.1317C47.3381 13.9773 47.5395 13.5807 47.9552 13.3135C48.3623 13.0463 48.9494 12.9002 49.6094 13.1173C49.935 13.2258 50.2864 13.4345 50.5693 13.7685C50.8521 14.0983 51.0278 14.5534 51.0493 14.95C51.075 15.3508 50.9764 15.6597 50.9035 15.8434C50.835 16.0438 50.7664 16.119 50.7664 16.1273C50.7664 16.1273 50.655 16.382 50.3422 16.6826C50.1879 16.8245 49.9865 16.9873 49.7551 17.1042C49.5194 17.2211 49.2665 17.3046 48.9537 17.434C48.808 17.3547 48.6108 17.2545 48.3966 17.1376ZM14.966 49.4715C14.8888 49.53 14.7988 49.6928 14.8031 49.8807C14.8417 49.8431 14.876 49.8097 14.8931 49.7805C14.966 49.6677 14.9488 49.6886 14.9488 49.6886C14.9488 49.6886 14.9445 49.6928 14.9402 49.6803C14.9402 49.6761 14.9317 49.6803 14.9402 49.6761C14.9702 49.651 15.0131 49.6176 15.0474 49.5759C15.1031 49.5175 15.1417 49.4423 15.1588 49.3964C15.1374 49.4006 15.1117 49.4047 15.0902 49.4089C15.0217 49.4298 14.9831 49.4548 14.966 49.4715ZM15.1717 49.363C15.1759 49.3588 15.1759 49.3588 15.1759 49.3588L15.1717 49.363ZM13.7875 49.9516C13.736 49.9182 13.6932 49.8848 13.6546 49.8431C13.3503 49.5508 13.2432 49.1292 13.3846 48.7034C13.4746 48.4821 13.6375 47.9769 14.3617 47.5887C14.546 47.501 14.756 47.4426 14.9874 47.4133C15.1802 47.4008 15.3645 47.4092 15.5573 47.4467C15.943 47.5135 16.2773 47.7014 16.5258 47.9101C17.023 48.3402 17.2329 48.8537 17.3101 49.2795C17.3915 49.697 17.3315 49.9725 17.3315 49.9725C17.3315 49.9725 17.3186 50.1228 17.2501 50.3608C17.1815 50.582 17.053 50.8701 16.8558 51.1415C16.4658 51.6925 15.853 52.0891 15.3645 52.2937L14.7731 52.5442L14.2546 52.2269C13.646 51.8512 13.4361 51.4337 13.3375 51.2458C13.0889 50.7281 13.2989 50.2188 13.7875 49.9516ZM19.2 99.5693L19.2042 99.5735C19.2 99.5693 19.2042 99.5693 19.2042 99.5651C19.1957 99.5609 19.1871 99.5609 19.1828 99.5609C19.1871 99.5651 19.1914 99.5693 19.2 99.5693ZM19.2 99.5818C19.2 99.586 19.2 99.5818 19.2 99.5735H19.1957C19.1957 99.5776 19.2 99.5818 19.2 99.5818ZM18.1543 101.69C17.6443 101.452 17.3444 101.131 17.2115 100.959C16.8087 100.479 16.8987 99.8615 17.3358 99.4649C17.3315 99.4524 17.3229 99.444 17.3186 99.4357C17.1387 99.085 17.1644 98.6633 17.4044 98.3001C17.5329 98.0997 17.82 97.7324 18.3514 97.4568C18.6171 97.3191 18.9557 97.2063 19.3585 97.1938C19.7485 97.1729 20.207 97.294 20.5327 97.5028C21.2441 97.9202 21.5055 98.63 21.5784 99.0516C21.6469 99.4941 21.5955 99.7697 21.5955 99.7697C21.5955 99.7697 21.5869 99.8406 21.5698 99.9617C21.5441 100.079 21.5141 100.262 21.4155 100.492C21.2398 100.943 20.8113 101.506 20.1513 101.765C19.5042 102.041 18.7028 101.966 18.1543 101.69ZM82.6372 135.435C82.44 135.368 82.2686 135.335 82.1272 135.335C81.9986 135.331 81.8958 135.352 81.8229 135.368C81.5529 135.448 81.3044 135.481 81.0087 135.527C80.833 135.565 80.6059 135.594 80.3787 135.736C80.3916 135.823 80.4002 135.903 80.4087 135.982C80.4602 136.324 80.4859 136.6 80.4687 136.946C80.473 137.134 80.473 137.543 80.6787 137.915C80.8673 138.299 81.2058 138.566 81.6901 138.646C82.17 138.733 82.7143 138.583 83.0357 138.412C83.3614 138.232 83.4942 138.061 83.4942 138.061C83.4942 138.061 84.1542 137.452 83.6914 136.458C83.4685 135.982 83.0186 135.585 82.6372 135.435ZM82.1315 132.989C82.5514 132.984 83.0443 133.068 83.5414 133.256C84.527 133.644 85.4184 134.475 85.8855 135.481C86.3698 136.487 86.3612 137.71 86.0012 138.495C85.8469 138.892 85.6455 139.18 85.4998 139.364C85.3541 139.556 85.2555 139.643 85.2555 139.643C85.2555 139.643 85.1613 139.739 84.9941 139.902C84.8184 140.052 84.557 140.261 84.2056 140.453C83.5157 140.829 82.4572 141.159 81.283 140.963C80.7001 140.867 80.1045 140.633 79.6116 140.265C79.1145 139.902 78.7546 139.426 78.5231 138.971C78.0432 138.057 78.0603 137.23 78.0775 136.842C78.1546 135.773 78.7546 135.055 79.5474 134.78C79.5645 134.671 79.5902 134.563 79.6331 134.458C79.8559 133.878 80.3444 133.381 81.1373 133.131C81.3515 133.068 81.6944 132.984 82.1315 132.989ZM68.0024 10.2032C67.9596 10.2283 67.9081 10.2575 67.861 10.2909C68.0024 10.3953 68.1267 10.5038 68.2467 10.6499C68.3452 10.7627 68.5938 10.9965 68.9024 11.0967C69.2752 11.2219 69.8066 11.2261 70.338 11.0633C70.8522 10.9171 71.4008 10.579 71.6365 10.3744C71.6836 10.3368 71.735 10.2867 71.7479 10.27C71.705 10.2325 71.5807 10.1239 71.4865 10.0571C71.285 9.89848 71.0451 9.75236 70.7965 9.63964C70.2951 9.40585 69.7637 9.33488 69.3823 9.4142C69.0438 9.46848 68.7909 9.66052 68.6752 9.76071C68.461 9.9444 68.2681 10.0613 68.0024 10.2032ZM68.1438 13.3302C67.1753 13.0045 66.6354 12.4201 66.3954 12.1278C65.6926 11.2678 65.7526 10.2325 66.3311 9.59372C66.3311 9.07187 66.5411 8.52079 67.0382 8.05321C67.3082 7.79855 67.951 7.2767 68.9452 7.09718C69.8794 6.91349 70.9722 7.10553 71.825 7.51466C72.2578 7.71088 72.6435 7.95719 72.9735 8.21186C73.1492 8.34545 73.2692 8.44147 73.4492 8.61264C73.672 8.82138 73.852 9.04264 73.9763 9.26391C74.2249 9.71479 74.2463 10.1448 74.2163 10.4287C74.182 10.7126 74.122 10.867 74.122 10.867C74.122 10.867 74.0791 11.0257 73.9377 11.2845C73.8606 11.4139 73.7663 11.5601 73.6249 11.7312C73.4921 11.8899 73.3892 11.9901 73.2392 12.1195C72.9435 12.3783 72.6521 12.5662 72.2878 12.7749C71.9236 12.9795 71.5079 13.1674 71.0536 13.3051C70.1537 13.5932 69.0395 13.6308 68.1438 13.3302ZM138.785 68.6047C138.476 68.0411 138.305 67.5443 138.223 67.2896C137.953 66.3587 137.486 65.9078 136.754 64.9309C135.952 65.841 135.588 66.6968 135.926 67.9492C136.021 68.2832 136.244 68.9596 136.664 69.7152C136.878 70.1035 137.114 70.475 137.443 70.9008C137.538 71.0136 137.636 71.1263 137.769 71.2515C137.923 71.3976 138.099 71.5312 138.288 71.6356C138.669 71.8527 139.106 71.9529 139.539 71.9195C139.753 71.907 139.972 71.8611 140.165 71.7984C140.328 71.7483 140.46 71.6941 140.58 71.644C140.82 71.5396 141.048 71.431 141.253 71.31C141.669 71.0678 142.025 70.8007 142.303 70.5502C142.865 70.045 143.135 69.615 143.135 69.615C143.135 69.615 143.207 69.519 143.323 69.3311C143.439 69.1432 143.602 68.8635 143.739 68.4962C144.039 67.7823 144.184 66.5799 143.786 65.507C143.422 64.4341 142.539 63.4196 141.45 63.0146C140.919 62.8017 140.345 62.7433 139.916 62.7767C139.479 62.8101 139.149 62.9019 138.935 62.9771C138.146 63.2526 137.671 63.7786 137.448 64.3422C137.229 64.9142 137.298 65.578 137.671 66.0622C138.082 65.603 138.502 65.5028 138.815 65.4193C139.149 65.3483 139.402 65.2815 139.715 65.1855C139.886 65.1313 140.225 65.0603 140.546 65.1939C140.91 65.3191 141.322 65.7408 141.506 66.271C141.69 66.8054 141.635 67.298 141.485 67.6821C141.343 68.0578 141.163 68.2832 141.163 68.2832C141.163 68.2832 141.013 68.5212 140.675 68.826C140.503 68.9763 140.289 69.1432 140.028 69.2852C139.903 69.3645 139.762 69.4271 139.62 69.4898C139.548 69.5232 139.488 69.544 139.445 69.5607C139.419 69.5357 139.381 69.4898 139.338 69.4397C139.149 69.1933 138.935 68.8761 138.785 68.6047ZM11.1219 78.5742C11.2076 78.6451 11.2719 78.6827 11.3062 78.6994C11.3148 78.7036 11.3233 78.7036 11.3233 78.7077C11.3362 78.7036 11.3833 78.6743 11.4305 78.6242C11.5333 78.5282 11.6319 78.3738 11.7005 78.2485C11.7647 78.1191 11.799 78.0189 11.829 77.9438C11.8547 77.8561 11.8676 77.8143 11.8676 77.8143C11.8676 77.8143 11.9576 77.5597 12.0004 77.1714C12.0433 76.7873 12.0133 76.2822 11.8033 75.9064C11.6447 75.5766 11.2162 75.2969 10.9419 75.2635C10.8048 75.2427 10.7062 75.251 10.6334 75.276C10.6034 75.2802 10.5648 75.3136 10.5348 75.3303C10.4191 75.418 10.2477 75.514 10.0249 75.656C9.90915 75.7394 9.75487 75.848 9.63488 76.0233C9.78487 76.2822 9.88772 76.4826 9.97771 76.8124C10.0334 77.0128 10.2048 77.5096 10.5605 77.9688C10.7234 78.1901 10.9419 78.428 11.1219 78.5742ZM10.2691 80.8202C10.0077 80.6991 9.7763 80.5447 9.57917 80.386C9.19776 80.0729 8.88493 79.7264 8.60209 79.3507C8.03641 78.6117 7.73643 77.7726 7.64644 77.3593C7.43645 76.5285 7.70644 75.7436 8.25497 75.276C8.19069 74.7333 8.35353 74.1196 8.94492 73.5811C9.12491 73.4308 9.41203 73.197 9.87915 73.0467C10.2948 72.9089 10.8262 72.8547 11.3576 72.9465C12.4204 73.1302 13.4189 73.8274 13.9503 74.8335C14.456 75.7979 14.4603 76.779 14.3874 77.4219C14.3103 78.0815 14.1731 78.4656 14.1731 78.4656C14.1731 78.4656 14.1517 78.5324 14.1089 78.666C14.0617 78.8038 13.9846 79.025 13.8475 79.2964C13.7017 79.5678 13.5089 79.9059 13.1318 80.2816C12.9389 80.4695 12.699 80.6657 12.3518 80.8286C11.9961 80.9955 11.5633 81.0916 11.1133 81.0498C10.8562 81.0289 10.5262 80.9454 10.2691 80.8202ZM119.423 117.12C118.99 116.966 118.575 116.966 118.378 116.999C118.013 117.028 117.726 117.024 117.375 116.995C117.079 116.978 116.728 116.941 116.282 117.024C116.346 117.033 116.411 117.041 116.479 117.062C116.222 117.604 116.393 117.976 116.479 118.26C116.586 118.556 116.663 118.773 116.728 119.061C116.766 119.212 116.856 119.546 117.186 119.884C117.491 120.235 118.043 120.527 118.545 120.589C119.046 120.656 119.44 120.506 119.702 120.306C119.968 120.105 120.092 119.892 120.092 119.892C120.092 119.892 120.233 119.704 120.357 119.345C120.482 118.995 120.537 118.452 120.366 118.014C120.212 117.575 119.856 117.275 119.423 117.12ZM120.263 114.912C120.735 115.087 121.232 115.358 121.669 115.755C122.106 116.156 122.436 116.682 122.633 117.216C123.036 118.306 122.886 119.366 122.642 120.076C122.393 120.79 122.085 121.199 122.085 121.199C122.085 121.199 122.007 121.295 121.875 121.479C121.729 121.65 121.51 121.896 121.185 122.151C120.563 122.664 119.368 123.094 118.228 122.923C117.088 122.773 116.059 122.188 115.404 121.466C114.718 120.765 114.452 119.926 114.371 119.517C114.234 118.74 114.448 118.089 114.838 117.638C115.121 117.304 115.562 117.062 116.012 117.02C115.943 115.88 116.681 114.874 118.103 114.674C118.493 114.619 119.312 114.578 120.263 114.912ZM121.206 28.0714C120.932 28.2718 120.692 28.4096 120.387 28.5766C120.379 28.5808 120.37 28.5849 120.362 28.5891C120.426 28.8438 120.473 29.0734 120.503 29.3531C120.52 29.5285 120.589 29.9125 120.833 30.2215C121.06 30.5179 121.459 30.7224 121.986 30.7183C122.5 30.7183 122.98 30.4803 123.207 30.2716C123.443 30.0587 123.494 29.8833 123.507 29.8875C123.494 29.8833 123.597 29.7372 123.61 29.4199C123.627 29.1193 123.507 28.61 123.177 28.2301C122.843 27.8418 122.427 27.6874 122.063 27.7249C121.686 27.7542 121.347 27.9629 121.206 28.0714ZM122.02 33.0687C121.442 33.0812 120.829 32.9685 120.272 32.7138C119.715 32.4633 119.235 32.0626 118.909 31.6409C118.253 30.7851 118.146 29.9418 118.112 29.5493C118.065 28.7227 118.348 28.0714 118.815 27.6456C118.913 27.1488 119.205 26.652 119.719 26.2345C120.045 25.9882 120.756 25.4831 121.857 25.3787C122.406 25.3328 123.04 25.4163 123.606 25.6667C124.172 25.9089 124.66 26.293 125.029 26.7313C125.783 27.6039 126.057 28.6935 126.014 29.5243C125.993 29.9418 125.903 30.2841 125.821 30.5179C125.731 30.7475 125.676 30.8769 125.676 30.8769C125.676 30.8769 125.607 30.998 125.491 31.2151C125.359 31.4238 125.149 31.7119 124.836 31.9916C124.214 32.5594 123.182 33.0562 122.02 33.0687ZM33.0376 121.8C33.6504 122.456 34.0404 122.89 34.3404 123.499C34.4475 123.7 34.6404 124.046 35.026 124.322C35.4203 124.61 35.9131 124.718 36.2302 124.589C36.5816 124.476 36.9031 124.067 37.0145 123.741C37.0745 123.583 37.0873 123.445 37.1002 123.353C37.1088 123.266 37.1088 123.207 37.1088 123.207C37.1088 123.207 37.1259 122.977 37.0016 122.61C36.8859 122.243 36.5816 121.729 36.106 121.316C35.6517 120.903 35.0303 120.64 34.6189 120.627C34.4132 120.61 34.2632 120.648 34.1432 120.685C34.0575 120.723 34.0318 120.744 33.9804 120.786C33.7961 120.936 33.6461 121.061 33.4361 121.241C33.3033 121.366 33.119 121.529 33.0376 121.8ZM31.962 122.84C32.0262 122.568 32.1377 122.309 32.2791 122.046C31.9834 121.825 31.7563 121.487 31.6791 121.128C31.5248 120.502 31.6577 119.767 32.3134 119.103C32.4848 118.932 32.8276 118.669 33.2733 118.502C33.689 118.343 34.2247 118.239 34.7689 118.277C35.8703 118.343 36.9288 118.865 37.7216 119.571C38.5144 120.264 39.0586 121.149 39.29 121.896C39.4143 122.268 39.4657 122.593 39.4872 122.823C39.5086 123.053 39.5043 123.186 39.5043 123.186C39.5043 123.186 39.5086 123.311 39.4915 123.558C39.47 123.796 39.4186 124.138 39.2772 124.526C39.0029 125.282 38.3472 126.313 37.0702 126.789C36.4445 127.027 35.7374 127.048 35.1289 126.91C34.5161 126.777 34.0018 126.509 33.5904 126.209C32.7505 125.608 32.3434 124.852 32.1848 124.522C31.8805 123.879 31.8548 123.328 31.962 122.84ZM25.3238 27.2824C25.3667 27.3408 25.4095 27.3993 25.4524 27.4536C25.6324 27.6748 25.7481 27.8418 25.8295 28.0714C25.8681 28.1883 25.9838 28.4388 26.1809 28.6267C26.378 28.8187 26.618 28.9064 26.9609 28.8772C27.2908 28.848 27.6208 28.6684 27.7751 28.5098C27.9337 28.3553 27.9765 28.2468 27.9765 28.2468C27.9765 28.2468 28.0451 28.1424 28.0494 27.9754C28.0665 27.8168 27.9937 27.5078 27.7751 27.2448C27.5523 26.9735 27.2394 26.844 27.0551 26.8566C26.8237 26.844 26.558 26.9568 26.4209 27.0236C26.1209 27.1822 25.7781 27.2532 25.3238 27.2824ZM25.7224 31.0523C25.2296 30.8894 24.8139 30.6139 24.5053 30.3175C23.8754 29.7121 23.6311 29.0734 23.5411 28.7603C23.284 27.8585 23.6139 27.1238 24.2525 26.7188C24.2782 26.0049 24.4796 25.4497 25.2724 24.9737C25.5467 24.8276 26.1595 24.4978 27.0894 24.502C28.0579 24.4978 29.0607 25.0322 29.6435 25.7586C30.2521 26.4767 30.5092 27.4118 30.4449 28.1341C30.4235 28.4973 30.3335 28.7853 30.2606 28.9774C30.1878 29.1694 30.1321 29.2696 30.1321 29.2696C30.1321 29.2696 29.9478 29.7038 29.455 30.1839C28.9707 30.6598 28.1694 31.1149 27.2051 31.2151C26.7295 31.2652 26.2066 31.2192 25.7224 31.0523ZM79.1874 127.875L79.7745 127.841C82.26 127.682 84.2828 127.348 85.2898 127.177C88.9967 126.472 90.9809 125.47 93.5993 123.746C90.4452 124.067 88.4011 124.238 84.8656 124.877C83.9056 125.036 81.9858 125.345 79.6116 125.491L79.0502 125.528L78.2232 125.566C77.6746 125.587 77.1175 125.595 76.5604 125.603C75.4462 125.616 74.3191 125.553 73.1749 125.512C72.035 125.466 70.8908 125.336 69.7337 125.24C68.5895 125.073 67.4196 124.973 66.2625 124.748C65.684 124.643 65.1012 124.539 64.5184 124.434C63.9398 124.309 63.3613 124.18 62.7785 124.05C61.6086 123.812 60.4601 123.458 59.2944 123.153C56.9931 122.443 54.679 121.671 52.4463 120.673C47.9338 118.761 43.6655 116.177 39.7914 113.129C35.9646 110.023 32.5362 106.441 29.8107 102.429C24.2439 94.4593 21.2184 85.2121 20.2327 76.5702C19.2171 67.895 20.3013 59.8042 22.3069 53.3249C24.2996 46.8122 27.2051 41.9193 29.4893 38.7673C29.7721 38.3707 30.0421 37.9991 30.2949 37.6443C30.5692 37.3061 30.822 36.9888 31.062 36.6966C31.5463 36.1121 31.9277 35.5945 32.2834 35.2187C32.9862 34.4506 33.359 34.0414 33.359 34.0414C33.359 34.0414 33.449 33.9412 33.6333 33.7408C33.8047 33.5404 34.0832 33.2566 34.4604 32.8933C35.2103 32.1669 36.2817 31.069 37.8073 29.8249C38.5701 29.1986 39.4143 28.5098 40.3957 27.8293C41.377 27.1363 42.4227 26.3765 43.614 25.6584C45.9625 24.1763 48.7394 22.6525 51.9492 21.3542C58.3345 18.724 66.5154 16.8746 75.4505 17.3964C84.3642 17.8098 93.895 20.5944 102.38 25.5707C106.61 28.0631 110.604 31.0648 114.139 34.509C115.922 36.2207 117.568 38.0576 119.123 39.9488C119.882 40.9048 120.563 41.8984 121.287 42.867C121.952 43.8731 122.547 44.9168 123.182 45.9313C125.534 50.1103 127.141 54.6024 128.114 59.0861C129.083 63.5699 129.421 68.0494 129.284 72.3119C129.267 72.8463 129.254 73.3765 129.237 73.9025C129.211 74.4286 129.143 74.9504 129.1 75.4681C128.98 76.5076 128.945 77.5388 128.753 78.5366C128.586 79.5427 128.427 80.5321 128.264 81.5049C128.067 82.3565 127.878 83.1915 127.686 84.0181C127.57 84.5274 127.476 85.0034 127.334 85.4292C127.081 86.2809 126.88 86.9655 126.743 87.4206C126.618 87.8464 126.507 88.2472 126.4 88.6271C126.271 89.007 126.156 89.366 126.057 89.7167C125.851 90.4181 125.689 91.0777 125.547 91.729C125.239 93.019 124.96 94.2547 124.69 95.7952C125.65 94.5804 126.481 93.5409 127.184 92.3594C127.518 91.7624 127.836 91.132 128.153 90.4431C128.311 90.0925 128.466 89.7292 128.624 89.3452C128.778 88.9569 128.894 88.5436 129.035 88.1052C129.181 87.6293 129.395 86.9112 129.665 86.0304C129.807 85.592 129.914 85.0952 130.034 84.5692C130.231 83.7092 130.428 82.8366 130.634 81.9474C130.801 80.9371 130.972 79.9059 131.144 78.8622C131.345 77.8227 131.384 76.7498 131.504 75.6685C131.547 75.1299 131.62 74.5872 131.65 74.0403C131.667 73.4934 131.684 72.9382 131.697 72.3829C131.838 67.9451 131.491 63.2818 130.475 58.5977C129.46 53.9135 127.776 49.2085 125.303 44.8041C124.634 43.7312 124.009 42.629 123.302 41.5686C122.543 40.5458 121.81 39.4937 121.017 38.4918C119.406 36.5254 117.696 34.6175 115.845 32.8391C112.172 29.2654 108.024 26.1469 103.623 23.5543C94.8035 18.3859 84.887 15.4844 75.579 15.0544C66.254 14.5116 57.6831 16.4446 51.015 19.1958C47.6595 20.5568 44.7582 22.1432 42.3156 23.6921C41.0685 24.4435 39.9757 25.2367 38.9643 25.9548C37.9358 26.6645 37.0445 27.3909 36.2517 28.0422C34.6532 29.3489 33.5261 30.5012 32.7462 31.2652C32.3476 31.6409 32.0562 31.9415 31.872 32.1544C31.6791 32.3631 31.5806 32.4717 31.5806 32.4717C31.5806 32.4717 31.1949 32.8975 30.4578 33.7074C30.0807 34.104 29.6821 34.6426 29.1721 35.2563C28.9236 35.5652 28.6536 35.8992 28.3708 36.2499C28.1051 36.6215 27.8222 37.0139 27.5223 37.4272C25.1267 40.7336 22.084 45.8561 20.0056 52.6486C17.9143 59.4076 16.783 67.824 17.8372 76.8333C18.8614 85.8049 21.9941 95.407 27.8094 103.744C30.6592 107.936 34.2589 111.705 38.2573 114.949C42.3113 118.139 46.7681 120.832 51.4649 122.823C53.7962 123.863 56.2046 124.672 58.6002 125.407C59.813 125.724 61.0086 126.092 62.2257 126.342C62.8299 126.472 63.4341 126.61 64.0341 126.743C64.6426 126.848 65.2512 126.956 65.8511 127.065C67.0553 127.303 68.2681 127.407 69.4637 127.578C70.6679 127.678 71.8593 127.816 73.0464 127.862C74.2334 127.908 75.4076 127.966 76.5776 127.954C77.1604 127.945 77.7389 127.941 78.3217 127.912L79.1874 127.875ZM130.338 20.06C131.645 21.2999 132.854 22.6317 134.024 23.9926C134.611 24.6731 135.181 25.3662 135.734 26.0675C136.274 26.7856 136.779 27.5204 137.302 28.2426C138.339 29.6954 139.428 31.1191 140.28 32.6846L141.639 34.9766C141.853 35.3607 142.106 35.728 142.299 36.1288L142.873 37.3228L144.026 39.7066L144.6 40.8965L145.072 42.128C147.737 48.6157 149.267 55.4206 149.798 62.092C150.308 68.7675 149.82 75.2969 148.684 81.3963C148.543 82.1603 148.423 82.9243 148.268 83.6758C148.084 84.4231 147.9 85.1662 147.716 85.9009C147.339 87.3663 147.03 88.8358 146.541 90.2386C146.083 91.6413 145.667 93.0399 145.187 94.3967C144.724 95.574 144.274 96.7304 143.824 97.8701C143.623 98.3711 143.452 98.8429 143.272 99.2687C142.877 100.104 142.565 100.772 142.355 101.223C140.859 104.558 139.389 106.157 137.306 108.453C138.052 105.427 138.742 103.531 140.165 100.271C140.37 99.8323 140.67 99.1768 141.048 98.3628C141.223 97.9495 141.39 97.4861 141.583 96.9976C142.02 95.8913 142.462 94.7599 142.912 93.616C143.375 92.3009 143.777 90.9358 144.227 89.5664C144.703 88.2138 145.003 86.7818 145.367 85.354C145.547 84.6402 145.727 83.9179 145.907 83.1915C146.057 82.4651 146.173 81.722 146.306 80.9788C147.411 75.0548 147.883 68.7258 147.39 62.2673C146.871 55.8172 145.397 49.2544 142.826 42.9922L142.372 41.8107L141.819 40.6627L140.709 38.3624L140.152 37.2101C139.972 36.826 139.728 36.4712 139.518 36.0996L138.206 33.887C137.383 32.3798 136.338 31.0063 135.335 29.5994C134.829 28.9022 134.337 28.1925 133.822 27.4995C133.287 26.819 132.738 26.1552 132.172 25.4956C131.041 24.1847 129.875 22.903 128.62 21.7132C127.407 20.4691 126.083 19.3461 124.78 18.2022C122.097 16.0062 119.252 14.0107 116.282 12.2489C113.299 10.5038 110.18 9.0176 107.013 7.73593C103.837 6.45426 100.576 5.47735 97.3233 4.65492C94.0664 3.8283 90.7752 3.31063 87.5311 2.90567C84.2828 2.52159 81.0601 2.38799 77.9018 2.34624C65.2512 2.35877 53.7705 5.13084 44.6982 8.81303C40.16 10.6666 36.196 12.7374 32.849 14.7955C31.1992 15.8559 29.635 16.8245 28.3022 17.8223C26.9523 18.8201 25.7652 19.7928 24.7282 20.7071C22.6326 22.5189 21.2098 24.1513 20.1856 25.2033C19.6671 25.7252 19.3414 26.1886 19.0885 26.4683C18.8443 26.7564 18.72 26.9067 18.72 26.9067C18.72 26.9067 18.5957 27.057 18.3514 27.345C18.1157 27.6414 17.7386 28.0547 17.2929 28.6392C16.8601 29.232 16.3201 29.9585 15.6859 30.8185C15.0345 31.666 14.4131 32.7264 13.6418 33.8703C13.2475 34.438 12.9004 35.0768 12.5147 35.7364C12.1333 36.4002 11.739 37.0932 11.3233 37.8155C10.5862 39.31 9.69916 40.8923 8.95778 42.6791C7.38503 46.211 5.84656 50.3315 4.69378 54.9906C3.52814 59.6455 2.66249 64.8265 2.45679 70.379C2.23823 75.9231 2.69248 81.8305 3.94383 87.8548L4.16667 88.9903L4.45379 90.1133C4.64664 90.8648 4.83948 91.6246 5.03233 92.3844C5.44802 93.8957 5.94941 95.4028 6.43366 96.9225C7.52216 99.9283 8.70922 102.959 10.2006 105.907C10.5691 106.641 10.9205 107.389 11.3105 108.123C11.7219 108.85 12.1247 109.572 12.5361 110.303L13.1489 111.397L13.8175 112.465C14.2631 113.175 14.7131 113.889 15.1631 114.603C15.6173 115.312 16.1316 115.993 16.6116 116.69C17.1129 117.379 17.5629 118.101 18.1072 118.757C19.17 120.097 20.1856 121.475 21.3427 122.752C21.9126 123.395 22.4654 124.055 23.0483 124.693L24.8481 126.559L25.7481 127.495L26.6995 128.38L28.6022 130.162C29.2536 130.734 29.9307 131.285 30.5949 131.849C31.2634 132.408 31.9191 132.984 32.6305 133.485L34.7389 135.038C35.446 135.548 36.1274 136.095 36.8816 136.537C42.6927 140.399 49.108 143.371 55.7547 145.238C62.3971 147.112 69.2495 147.872 75.8662 147.592C76.6933 147.55 77.5161 147.513 78.3389 147.475C79.1574 147.413 79.9673 147.283 80.7773 147.191C81.5872 147.091 82.3929 146.991 83.1943 146.891C83.9956 146.774 84.7756 146.582 85.5684 146.436C86.3526 146.273 87.1326 146.114 87.9125 145.96C88.6882 145.801 89.4381 145.542 90.1966 145.342C90.9552 145.129 91.7051 144.912 92.4508 144.703C92.8279 144.603 93.2007 144.494 93.5607 144.348L94.2892 144.081C95.4034 143.672 96.4234 143.3 97.2805 142.987C98.1375 142.691 98.7804 142.332 99.2303 142.148C100.053 141.777 100.795 141.472 101.497 141.213C101.853 141.084 102.196 140.963 102.526 140.846C102.847 140.708 103.169 140.583 103.486 140.466C104.759 139.99 106.018 139.631 107.557 139.209C106.417 140.27 105.427 141.142 104.317 141.977C104.039 142.186 103.756 142.395 103.456 142.599C103.147 142.787 102.826 142.962 102.483 143.15C101.806 143.518 101.064 143.889 100.216 144.277C99.7489 144.474 99.0846 144.845 98.1933 145.158C97.3105 145.484 96.2562 145.872 95.0949 146.298L94.3407 146.574C93.9678 146.724 93.5864 146.837 93.1964 146.941C92.4208 147.162 91.6366 147.383 90.8523 147.605C90.0638 147.813 89.2881 148.081 88.4825 148.248C87.6725 148.41 86.8626 148.573 86.0441 148.736C85.2298 148.895 84.4156 149.091 83.5842 149.212C82.7486 149.316 81.9129 149.421 81.073 149.525C80.233 149.621 79.3888 149.755 78.5403 149.817C77.6875 149.859 76.8304 149.901 75.969 149.938C69.0995 150.239 61.9771 149.442 55.0818 147.496C48.1866 145.563 41.5356 142.478 35.5231 138.479C34.7389 138.023 34.0361 137.46 33.3076 136.93L31.1306 135.327C30.3892 134.809 29.7164 134.212 29.0264 133.636C28.3408 133.055 27.6465 132.488 26.9737 131.895L25.0153 130.066L24.0339 129.144L23.104 128.188L21.2527 126.263C20.6527 125.603 20.0828 124.927 19.4999 124.263C18.3043 122.948 17.2544 121.529 16.1659 120.151C15.6045 119.471 15.1417 118.732 14.6274 118.022C14.1303 117.304 13.6075 116.607 13.1361 115.872C12.6732 115.137 12.2104 114.402 11.7476 113.672L11.0576 112.574L10.4277 111.447C10.0077 110.695 9.58774 109.952 9.17205 109.205C8.76922 108.449 8.40924 107.677 8.02784 106.921C6.49366 103.886 5.26803 100.767 4.14953 97.6697C3.65242 96.1042 3.13817 94.5512 2.70534 92.9939C2.50821 92.2091 2.30679 91.4284 2.10967 90.6519L1.81397 89.4913L1.58256 88.3223C0.292644 82.1144 -0.174467 76.0108 0.0569454 70.2871C0.266931 64.5593 1.1583 59.2281 2.35822 54.4312C3.54957 49.6343 5.13089 45.3886 6.75507 41.744C7.52645 39.9029 8.43496 38.2663 9.19776 36.7258C9.62631 35.9785 10.0377 35.2646 10.432 34.58C10.8305 33.8953 11.1905 33.2357 11.5933 32.647C12.3947 31.4614 13.0375 30.3676 13.7146 29.4825C14.3703 28.5933 14.9317 27.8377 15.3816 27.2281C15.8402 26.6228 16.2387 26.1886 16.483 25.8838C16.7358 25.5833 16.8644 25.4288 16.8644 25.4288C16.8644 25.4288 16.9972 25.2743 17.2458 24.9737C17.5115 24.6815 17.85 24.2056 18.39 23.6587C19.4528 22.5607 20.9356 20.8615 23.1168 18.9745C24.201 18.0185 25.4438 16.9998 26.8537 15.9603C28.2636 14.9041 29.8707 13.9063 31.5677 12.8125C35.0175 10.6959 39.1015 8.56254 43.7726 6.65048C53.1063 2.85975 64.8912 0.0166993 77.906 0C81.1501 0.037573 84.467 0.179517 87.8139 0.576124C91.1566 0.98943 94.5421 1.52381 97.9104 2.37547C101.266 3.22713 104.639 4.23326 107.921 5.56085C111.204 6.88427 114.431 8.42477 117.529 10.2325C120.61 12.0652 123.563 14.1317 126.349 16.4195C127.707 17.601 129.078 18.7741 130.338 20.06Z" fill="#603434"/>
</svg>
